<?xml version="1.0" encoding="utf-8"?>
<!-- Generator: Adobe Illustrator 18.0.0, SVG Export Plug-In . SVG Version: 6.00 Build 0)  -->
<!DOCTYPE svg PUBLIC "-//W3C//DTD SVG 1.1//EN" "http://www.w3.org/Graphics/SVG/1.1/DTD/svg11.dtd">
<svg version="1.1" id="Layer_1" xmlns="http://www.w3.org/2000/svg" xmlns:xlink="http://www.w3.org/1999/xlink" x="0px" y="0px"
	 viewBox="0 0 432 432" style="enable-background:new 0 0 432 432;" xml:space="preserve">
<style type="text/css">
	.st0{fill:#030105;}
</style>
<g>
	<g>
		<g>
			<path class="st0" d="M53.4,404.5c0.7-5.5,2.6-10.1,5.8-13.9c3.2-3.7,6.9-7.2,11.1-10.2c1.3-5.1,2.4-10.3,3.1-15.8
				c0.8-5.5,1.2-10.7,1.3-15.6c0.1-4.9-0.2-9.2-0.8-12.9c-0.7-3.7-1.8-6.4-3.5-8.1c-0.2-0.2-0.4-0.4-0.7-0.6
				c-0.2-0.2-0.3-0.4-0.3-0.7c0-0.7,0.4-1.4,1.3-2.3c0.9-0.9,2.1-1.3,3.8-1.3c2.9,0,5.2,1.3,7.1,4c1.9,2.6,3.2,6.1,4,10.5
				c0.8,4.3,1.2,9.3,1.1,14.8c-0.1,5.5-0.7,11.1-1.6,16.8c3.8-4,6.6-8.2,8.2-12.8c1.6-4.6,2.8-9.6,3.7-15.1c0.2-1.4,0.8-2.1,1.7-2
				c0.9,0.1,1.3,0.9,1.1,2.3c-0.9,5.9-2.5,11.7-4.8,17.4c-2.3,5.7-5.9,10.6-10.9,14.9c-0.7,2.7-1.7,6.3-3.1,10.6
				c-1.4,4.3-3.2,8.5-5.4,12.5c-2.2,4.1-4.8,7.6-7.8,10.5c-3,2.9-6.3,4.4-9.9,4.4c-2.2,0-3.6-0.8-4.1-2.5
				C53.4,407.6,53.2,406,53.4,404.5z M56.9,407.8c1.4,0,2.8-1,4.2-3.1c1.4-2,2.6-4.4,3.6-7c1-2.6,2-5.2,2.7-7.7
				c0.8-2.5,1.3-4.2,1.5-5c-3.2,2.5-6,5.4-8.4,8.7c-2.4,3.2-3.9,7-4.5,11.1c-0.1,0.3-0.1,0.9-0.1,1.7
				C56.1,407.4,56.4,407.8,56.9,407.8z M78.8,305.8c1.8,0,3.3,0.6,4.5,1.8c1.2,1.2,1.8,2.7,1.8,4.5c0,1.9-0.6,3.4-1.8,4.6
				c-1.2,1.2-2.7,1.8-4.5,1.8c-1.8,0-3.3-0.6-4.5-1.8c-1.2-1.2-1.8-2.7-1.8-4.6c0-1.8,0.6-3.2,1.8-4.5
				C75.5,306.4,77,305.8,78.8,305.8z"/>
			<path class="st0" d="M109,364.1c2.2,0,4.5-1.1,6.8-3.3c2.4-2.2,4.5-5,6.4-8.6c-2.4-1.8-4.5-4-6.1-6.7c-1.6-2.7-2.9-5.7-3.7-8.8
				c-0.8-3.1-1.3-6.3-1.3-9.5c-0.1-3.2,0.4-6.1,1.3-8.6c0.9-2.6,2.3-4.7,4.1-6.3c1.8-1.6,4.1-2.4,6.8-2.4c2,0,3.6,0.5,4.8,1.5
				c1.2,1,2.1,2.3,2.8,3.8c0.7,1.5,1.1,3.2,1.3,4.9c0.2,1.8,0.3,3.4,0.3,4.8c0,4.1-0.6,8.4-1.7,13.1c-1.2,4.7-2.7,9.1-4.7,13.3
				c2.1,1,4,1.3,5.8,1.1c1.8-0.3,3.4-0.9,4.8-2c1.4-1,2.6-2.4,3.6-4.1c1-1.7,1.8-3.5,2.5-5.5c0.3-1.2,1-1.7,1.9-1.6
				c0.9,0.2,1.2,0.9,0.9,2.2v0.3c-0.8,2.3-1.8,4.5-3.1,6.4c-1.3,2-2.9,3.6-4.6,4.9c-1.8,1.3-3.7,2-5.9,2.2c-2.2,0.2-4.6-0.2-7.1-1.3
				c-2.2,4-4.6,7.2-7.2,9.8c-2.6,2.6-5.5,3.9-8.7,3.9c-4.9,0-8.7-1.7-11.4-5c-2.6-3.4-4.3-7.4-4.9-12c-0.6-4.7-0.3-9.6,1-14.8
				c1.3-5.2,3.3-9.8,6.2-13.8c0.7-0.9,1.6-1.3,2.8-1.3c1.2,0,2.4,0.2,3.6,0.7c1.2,0.4,2.3,1,3.1,1.8c0.9,0.8,1.3,1.5,1.3,2.1
				c0,0.1-0.2,0.3-0.7,0.5c-0.9,0.2-1.6,0.9-2.3,1.9c-0.7,1-1.2,2-1.6,2.9c-1.6,3.3-2.8,6.9-3.5,10.8c-0.7,3.9-1,7.5-0.8,10.9
				c0.2,3.4,0.9,6.2,2.1,8.4C105.1,362.9,106.8,364.1,109,364.1z M118.6,323.5c-0.7,2.1-1,4.3-1.1,6.8c-0.1,2.4,0.1,4.8,0.6,7.2
				c0.4,2.4,1.1,4.6,2.1,6.7c0.9,2.1,2.1,3.9,3.4,5.3c1.9-3.8,3.3-7.9,4.2-12.3c0.9-4.3,1.4-8.4,1.4-12.1c0-2.4-0.4-4.3-1.3-5.5
				c-0.9-1.3-1.9-1.9-3.1-2c-1.2-0.1-2.3,0.4-3.5,1.5C120,320,119.1,321.5,118.6,323.5z"/>
			<path class="st0" d="M188.5,339.8c0.5-0.8,1.2-1,1.8-0.7c0.7,0.3,0.9,1,0.7,2.2c-0.3,1.6-0.9,4.2-1.8,7.5c-0.9,3.4-2,6.7-3.5,10
				c-1.4,3.3-3.1,6.2-4.9,8.8c-1.9,2.6-4,3.9-6.3,3.9c-3.1,0-5.6-1.3-7.5-4c-1.9-2.7-2.7-6.6-2.2-11.6c-0.6,1.6-1.3,3.9-2.4,6.8
				c-1,2.9-2.3,5.8-3.9,8.6c-1.5,2.8-3.3,5.3-5.2,7.3c-1.9,2.1-4,3.1-6.2,3.1c-3.1,0-5.5-0.9-7.2-2.7c-1.7-1.8-2.9-4-3.7-6.5
				c-0.9-3-1.2-6.8-0.9-11.5c0.3-4.7,0.9-9.5,1.9-14.4c1-4.9,2.3-9.7,4-14.2c1.6-4.5,3.5-8.1,5.4-10.7c0.7-0.9,1.7-1.3,3.1-1.3
				c1.4,0,2.7,0.2,4.1,0.7c1.4,0.5,2.6,1.2,3.6,2c1,0.8,1.6,1.6,1.6,2.4c0,0.1-0.2,0.3-0.7,0.5c-0.9,0.2-1.6,0.9-2.3,1.9
				c-0.7,1-1.2,2-1.6,2.9c-2,4.3-3.7,9.1-5,14.5c-1.4,5.4-2.3,10.5-2.9,15.3c-0.6,4.8-0.7,8.9-0.3,12.2c0.3,3.3,1.2,4.9,2.5,4.9
				c1.4,0,3-1.2,4.6-3.6c1.6-2.4,3.2-5.5,4.7-9.2c1.5-3.8,2.9-7.9,4.2-12.5c1.3-4.6,2.4-9,3.1-13.3c0.1-0.9,0.3-2.1,0.7-3.5
				c0.3-1.5,0.8-3,1.3-4.5c0.5-1.5,1.4-2.7,2.5-3.4c1.1-0.7,2.2-1,3.4-1c1.2,0.1,2.2,0.6,3.1,1.6c0.9,1,1.3,2.4,1.3,4.3
				c0,1.4-0.2,3.3-0.7,5.5c-0.5,2.3-1,4.7-1.6,7.3c-0.6,2.6-1.2,5.2-1.8,7.8c-0.6,2.6-1,5-1.2,7.2c-0.2,2.1-0.2,3.9,0.2,5.2
				c0.3,1.3,1.1,2,2.3,2c1.6,0,3.2-1,4.7-2.9c1.5-1.9,2.8-4.2,4-6.9c1.2-2.7,2.1-5.4,2.9-8.2c0.8-2.8,1.4-5.1,1.8-6.8
				c0.1-0.4,0.2-0.9,0.3-1.5C188.3,340.6,188.4,340.1,188.5,339.8z"/>
			<path class="st0" d="M234.7,341.5c-0.3,1.9-0.7,4.2-1.2,6.9c-0.4,2.8-1,5.6-1.6,8.6c-0.7,3-1.5,5.9-2.6,8.9c-1,3-2.3,5.6-3.7,7.9
				c-1.4,2.3-3.1,4.2-5,5.7c-1.9,1.5-4.2,2.2-6.7,2.2c-5.1,0-8.8-1.7-11.1-5c-2.3-3.4-3.4-7.3-3.4-12c0-3.5,0.4-7,1.2-10.3
				c0.8-3.4,1.6-6.7,2.6-9.9c1-3.2,2-6.5,2.9-9.8c0.9-3.3,1.6-6.6,2.1-9.9c0.2-2.4,0.2-4.3-0.1-5.8c-0.3-1.4-0.9-2.1-1.9-2.1
				c-0.8,0-1.6,0.4-2.6,1.2c-0.9,0.8-1.8,2.3-2.7,4.5c-0.9,2-1.7,4.1-2.4,6.4c-0.7,2.3-1.5,4.5-2.5,6.6c-0.9,2.1-2.1,3.8-3.5,5.2
				c-1.4,1.4-3.1,2.1-5,2.1c-2.4,0-4-1.2-4.9-3.6c-0.8-2.4-1.1-5.1-0.9-8c0.2-2.9,0.9-5.6,2-8c1.1-2.4,2.4-3.6,3.8-3.6
				c1.8,0,3.1,0.5,4,1.6c0.9,1,1.5,2.4,1.7,4c0.2,1.6,0.2,3.4,0.1,5.3c-0.2,1.9-0.4,3.7-0.7,5.4c1.1-1.9,2.1-4.1,3-6.8
				c0.9-2.6,1.8-5.1,2.7-7.5c0.9-2.4,2-4.4,3.3-6.1c1.3-1.7,2.9-2.6,5-2.6c2.4,0,4.4,0.4,5.9,1.1c1.5,0.7,2.6,1.7,3.5,2.9
				c0.8,1.2,1.4,2.6,1.6,4.3c0.3,1.6,0.4,3.4,0.4,5.3c0,3.4-0.4,6.7-1.1,9.9c-0.8,3.2-1.6,6.3-2.6,9.3c-1,3-1.8,6.1-2.6,9.2
				c-0.8,3.1-1.1,6.3-1.1,9.6c0,3.6,0.4,6.8,1.3,9.4c0.9,2.6,2.3,4,4.1,4c1.8,0,3.4-0.7,4.8-2.1c1.4-1.4,2.7-3.3,3.8-5.5
				c1.1-2.3,2.1-4.8,2.9-7.6c0.8-2.8,1.5-5.6,2.1-8.2c0.5-2.7,1-5.2,1.4-7.6c0.4-2.4,0.7-4.2,0.9-5.5c0.2-1.5,0.8-2.2,1.7-2.1
				C234.6,339.2,235,340,234.7,341.5z"/>
			<path class="st0" d="M253.7,316.9c-1.5,0-3,1.3-4.4,4c-1.4,2.6-2.7,5.9-3.9,9.7c-1.2,3.8-2.3,7.8-3.2,12c-0.9,4.2-1.7,8-2.2,11.3
				c-0.2,0.9-0.5,2.1-0.7,3.6c-0.3,1.5-0.6,3.1-1.1,4.5c-0.4,1.5-1,2.8-1.7,3.9c-0.7,1.1-1.6,1.6-2.6,1.6c-2.5,0-4.2-0.6-5.1-1.8
				c-0.9-1.2-1.3-3-1.2-5.3c0.1-2.6,0.4-5.5,0.7-8.5c0.4-3.1,0.6-6,0.7-8.8c0.1-2.8,0-5.3-0.2-7.5c-0.3-2.2-1-3.7-2.1-4.6
				c-0.2-0.2-0.4-0.4-0.7-0.6c-0.2-0.2-0.3-0.4-0.3-0.7c-0.1-0.7,0.2-1.5,1-2.6c0.8-1,1.9-1.6,3.5-1.6c3.8,0,6.5,1.3,8.1,3.8
				c0.7,1.1,1.1,2.3,1.4,3.7c0.3,1.4,0.5,2.8,0.6,4.4c1.1-4.1,2.3-8,3.6-11.7c1.3-3.7,2.7-6.7,4.3-8.9c1.9-2.6,4.2-4,6.9-4
				c2.7,0,4.9,0.7,6.6,2c1.6,1.3,2.9,3,3.7,5c0.8,2,1.3,4.2,1.5,6.6c0.2,2.4,0.1,4.5-0.1,6.5c-0.4,3.5-1.2,7.1-2.1,10.8
				c-1,3.7-1.8,7.3-2.3,10.8c-0.2,1.1-0.4,2.4-0.6,3.9c-0.2,1.5-0.2,2.9-0.2,4.3s0.2,2.5,0.6,3.5c0.4,0.9,1,1.4,1.9,1.4
				c1.3,0,2.9-1.4,4.6-4.3c0.9-1.4,1.8-3.1,2.7-5c0.9-1.9,1.8-3.9,2.6-6c0.8-2.1,1.5-4.1,2.1-6.1c0.7-2,1.2-3.7,1.6-5.3
				c0.2-1.4,0.8-2.1,1.6-1.9c0.9,0.2,1.2,1,1,2.4c-0.2,1-0.6,2.5-1.2,4.5c-0.6,2-1.3,4.1-2.2,6.4c-0.9,2.3-1.9,4.6-3,6.9
				c-1.1,2.4-2.3,4.5-3.5,6.4c-2.4,3.8-5.1,5.8-8.1,5.8c-3,0-5.3-0.8-6.9-2.4c-1.6-1.6-2.8-3.8-3.4-6.5c-0.6-2.7-0.8-5.8-0.6-9.2
				c0.2-3.4,0.7-6.9,1.5-10.6c0.3-1.5,0.8-3.7,1.4-6.6c0.6-2.9,1.1-5.7,1.4-8.5c0.3-2.8,0.4-5.3,0.2-7.4
				C255.8,317.9,255,316.9,253.7,316.9z"/>
			<path class="st0" d="M283.7,356.3c-0.2,3.7,0.4,7,2,9.7c1.5,2.7,4.1,4.1,7.8,4.1c3.2,0,6.1-1.1,8.8-3.3c2.7-2.2,5.1-4.8,7.1-7.9
				c2-3.1,3.8-6.3,5.2-9.6c1.4-3.3,2.4-6.1,3-8.4c0.3-1.4,1-2.1,2-1.9s1.3,1,0.8,2.4v0.2c-0.7,2.9-1.8,6.1-3.3,9.8
				c-1.5,3.7-3.5,7.2-5.8,10.5c-2.3,3.3-4.9,6.1-7.9,8.4c-3,2.3-6.3,3.5-9.9,3.5c-5.8,0-10.3-1.5-13.4-4.5c-3.1-3-5.1-6.8-6.1-11.3
				c-1-4.5-1-9.4-0.1-14.6c0.9-5.2,2.6-10.1,4.9-14.6c2.4-4.5,5.3-8.3,8.7-11.3c3.5-3,7.2-4.5,11.3-4.5c3.7,0,6.5,1.1,8.2,3.3
				c1.8,2.2,2.7,4.9,3,8.2c0.2,3.3-0.2,6.9-1.4,10.8c-1.2,3.9-2.8,7.5-4.8,10.8c-2,3.3-4.4,6-7.1,8.2c-2.7,2.2-5.5,3.3-8.5,3.3
				C286.8,357.6,285.3,357.2,283.7,356.3z M294.9,323.3c-1.3,1.5-2.6,3.4-3.8,5.7c-1.2,2.2-2.3,4.7-3.2,7.3
				c-0.9,2.6-1.7,5.4-2.4,8.2c-0.7,2.8-1.2,5.6-1.5,8.4c1.2,1.2,2.6,1.8,4.3,1.8c2.1,0,4-0.9,5.9-2.6c1.8-1.8,3.4-3.9,4.9-6.6
				c1.4-2.6,2.6-5.4,3.5-8.5c0.9-3,1.4-5.8,1.6-8.5c0.2-2.6,0.1-4.8-0.4-6.6c-0.5-1.8-1.4-2.6-2.7-2.6
				C299.2,319.3,297.1,320.7,294.9,323.3z"/>
			<path class="st0" d="M314.9,316.5c0-0.7,0.4-1.4,1.3-2.3c0.9-0.9,2.1-1.3,3.6-1.3c2.4,0,4.3,0.6,5.5,1.9c1.3,1.3,2.2,2.8,2.7,4.6
				c0.5,1.8,0.8,3.8,0.7,6c-0.1,2.2-0.2,4.2-0.6,5.9c-0.3,2.4-0.8,4.8-1.5,7.2c-0.7,2.4-1.3,4.7-2,7.1c-0.7,2.4-1.2,4.8-1.6,7.2
				c-0.4,2.4-0.5,4.8-0.4,7.3c0.2,2.5,1.2,3.8,2.8,3.8c0.8,0,1.8-0.5,3.1-1.6c1.6-1.4,3.1-3.5,4.4-6.3c1.3-2.7,2.4-5.7,3.3-8.8
				c0.9-3.1,1.6-6.2,2.1-9.2c0.5-3,0.7-5.5,0.7-7.5c0-1.9,0.3-3.1,0.8-3.8c0.5-0.7,1.4-1,2.6-1c1.2,0,2.1,0.5,2.6,1.4
				c0.5,0.9,0.9,2.2,1.1,3.7c0.2,2.9,0.4,6.6,0.7,11.1c0.2,4.6,0.2,9.6,0,15.1c2.6-2.4,4.7-4.8,6.1-7.2c1.4-2.4,2.6-5.3,3.5-8.7
				c0.2-1.4,0.8-2.1,1.8-2c1,0.1,1.3,0.9,1,2.3c-1.2,4.2-2.7,7.7-4.5,10.6c-1.8,2.9-4.5,5.8-8,8.7c-0.3,5.5-0.9,11.1-1.8,16.7
				c-0.9,5.7-2.2,10.9-3.9,15.8c-1.7,4.8-3.9,9.1-6.4,12.8c-2.6,3.7-5.7,6.3-9.5,7.8c-1,0.3-1.9,0.6-2.8,0.8
				c-0.9,0.2-1.8,0.3-2.6,0.3c-2,0-3.5-0.5-4.5-1.5c-1-1-1.8-2.2-2.1-3.7c-0.4-1.5-0.6-3.1-0.5-4.8c0.1-1.7,0.2-3.3,0.6-4.7
				c1.4-7.3,4.1-13.9,7.9-20c3.8-6,8.9-11.2,15.2-15.5c1-5.7,1.8-11.6,2.5-17.7c-0.6,1.8-1.2,3.8-2,6.1c-0.8,2.3-1.7,4.5-2.8,6.7
				c-1.1,2.1-2.4,4-4,5.4c-1.5,1.5-3.3,2.2-5.3,2.2c-2.8,0-5.3-1-7.8-2.9c-2.4-1.9-3.9-4.6-4.5-8.2c-0.3-2.2-0.4-4.5-0.1-6.9
				c0.3-2.4,0.7-4.9,1.2-7.5c0.5-2.6,1.2-5.1,1.8-7.7c0.7-2.5,1.2-4.9,1.5-7.3c0.2-1.5,0.4-3.2,0.4-4.9c0.1-1.8-0.5-3.2-1.6-4.5
				C315.2,317.2,314.9,316.8,314.9,316.5z M316.4,401c-0.1,0.5-0.2,1.2-0.4,2.1s-0.2,1.6-0.2,2.5c0.1,0.8,0.2,1.5,0.6,2.1
				c0.3,0.6,0.9,0.9,1.6,0.9c1.5,0,3.1-1.1,4.5-3.2c1.5-2.1,2.9-4.8,4.3-8.1c1.4-3.2,2.6-6.7,3.8-10.4c1.2-3.7,2.1-7.1,2.9-10.3
				c0.3-1.2,0.7-2.5,1-3.8s0.6-2.6,0.8-3.8c-5.2,3.8-9.3,8.6-12.5,14.2C319.8,388.8,317.6,394.7,316.4,401z"/>
		</g>
	</g>
	<g>
		<g>
			<path class="st0" d="M96.2,78c-7-3.8-11.5-9.2-13.5-15.9c-2-6.8-1.9-13.5,0.3-20.2c2.2-6.7,6.2-12.5,12-17.3
				c5.8-4.9,13.2-7.3,22.1-7.3c6,0,10.3,1.7,12.8,5.1c2.5,3.4,3.7,7.2,3.6,11.3c-0.1,4.1-1.3,7.9-3.5,11.3c-2.3,3.4-5.1,5.1-8.6,5.1
				c-1.5,0-2.8-0.5-3.9-1.6c-1.1-1.1-1.6-2.4-1.6-4.1c0-1.7,0.5-3,1.6-4.1c1.1-1.1,2.4-1.6,3.9-1.6c0.8,0,1.9,0.3,3.3,1
				c2.2-3.1,2.5-6,0.9-8.7c-1.6-2.6-3.9-4-6.9-4c-5.7,0-10.5,2.1-14.5,6.2c-4,4.1-6.8,8.8-8.4,14.2c-1.6,5.4-1.7,10.7-0.3,16
				c1.4,5.3,4.8,9.1,10.2,11.4c1.2-0.3,2.3-0.6,3.4-0.8c1.1-0.2,2.2-0.3,3.4-0.5c2-0.2,3.5,0.3,4.6,1.4c1.1,1.1,1.6,2.3,1.6,3.8
				c0,1.4-0.5,2.7-1.6,3.9c-1.1,1.2-2.7,1.8-4.9,1.8c-2.5,0-5.4-0.7-8.5-2c-4.3,1.8-8.2,5-11.5,9.5c-3.3,4.5-6,9.7-8,15.4
				c-2,5.8-3.2,11.8-3.6,18c-0.4,6.2,0.1,11.8,1.5,17c1.4,5.1,3.9,9.3,7.4,12.7c3.5,3.3,8.3,5,14.3,5c5.2,0,9.9-2.1,14-6.4
				c4.2-4.3,7.9-9.4,11-15.3c3.2-5.9,5.8-12,7.8-18.3c2-6.3,3.4-11.3,4.3-15.2c0.3-0.7,0.7-1.3,1-2c0.3-0.7,0.9-1,1.8-1
				c1.3,0,2,0.5,1.9,1.6c-0.1,1.1-0.2,2-0.4,2.6c-1.5,5.4-3.4,11.5-5.8,18.3c-2.3,6.9-5.3,13.4-8.9,19.7
				c-3.6,6.3-7.9,11.5-12.9,15.7c-5,4.2-10.9,6.3-17.8,6.3c-8,0-14.7-1.9-20.1-5.6c-5.4-3.8-9.4-8.6-12-14.4
				c-2.7-5.9-4.1-12.3-4.1-19.3c-0.1-7,1.1-13.8,3.5-20.3c2.4-6.5,6.1-12.3,11-17.5C82.7,83.6,88.9,80,96.2,78z"/>
			<path class="st0" d="M172.9,67.4c-2.3,0-4.6,2-6.6,6c-2.1,4-4.1,8.9-5.9,14.7c-1.8,5.8-3.5,11.9-4.9,18.3
				c-1.4,6.4-2.5,12.2-3.4,17.2c-0.3,1.3-0.7,3.2-1.1,5.5c-0.4,2.3-1,4.6-1.6,6.9c-0.7,2.3-1.5,4.2-2.6,5.9
				c-1.1,1.7-2.4,2.5-3.9,2.5c-3.8,0-6.4-0.9-7.8-2.7c-1.3-1.8-1.9-4.5-1.8-8c0.2-4,0.5-8.3,1.1-13c0.6-4.7,1-9.1,1.1-13.3
				c0.2-4.2,0-8-0.4-11.4c-0.4-3.3-1.5-5.7-3.1-7c-0.3-0.3-0.7-0.6-1-0.9c-0.3-0.3-0.5-0.6-0.5-1.1c-0.2-1,0.3-2.3,1.5-3.9
				c1.2-1.6,2.9-2.4,5.3-2.4c5.8,0,9.9,1.9,12.3,5.8c1,1.7,1.7,3.6,2.1,5.6c0.4,2.1,0.7,4.3,0.9,6.6c1.7-6.2,3.5-12.1,5.5-17.8
				c2-5.7,4.2-10.2,6.5-13.5c2.8-4,6.3-6,10.5-6c4.2,0,7.5,1,10,3c2.5,2,4.4,4.5,5.6,7.6c1.3,3.1,2,6.4,2.3,10
				c0.3,3.6,0.2,6.9-0.1,9.9c-0.7,5.3-1.8,10.8-3.3,16.4c-1.5,5.6-2.7,11-3.5,16.4c-0.3,1.7-0.6,3.6-0.9,5.9
				c-0.3,2.2-0.4,4.4-0.4,6.5s0.3,3.8,0.9,5.2c0.6,1.4,1.5,2.1,2.9,2.1c2,0,4.3-2.2,7-6.5c1.3-2.2,2.7-4.7,4.1-7.6
				c1.4-2.9,2.7-6,3.9-9.2c1.2-3.2,2.3-6.3,3.3-9.3c1-3,1.8-5.7,2.5-8c0.3-2.2,1.2-3.1,2.5-2.9c1.3,0.3,1.8,1.5,1.5,3.6
				c-0.3,1.5-1,3.8-1.9,6.8c-0.9,3-2,6.2-3.4,9.7c-1.3,3.4-2.8,6.9-4.5,10.5c-1.7,3.6-3.4,6.8-5.3,9.7c-3.7,5.8-7.8,8.8-12.3,8.8
				s-8-1.2-10.5-3.6c-2.5-2.4-4.2-5.7-5.1-9.8c-0.9-4.1-1.2-8.8-0.9-14c0.3-5.2,1.1-10.6,2.3-16.1c0.5-2.3,1.2-5.7,2.1-10.1
				c0.9-4.4,1.6-8.7,2.1-13c0.5-4.3,0.6-8,0.3-11.2C176.1,69,174.9,67.4,172.9,67.4z"/>
			<path class="st0" d="M177.9,200.5c1-8.4,3.9-15.4,8.8-21.1c4.8-5.7,10.4-10.9,16.8-15.5c2-7.7,3.6-15.7,4.8-24.1
				c1.2-8.4,1.8-16.3,2-23.7c0.2-7.4-0.2-14-1.3-19.7c-1-5.7-2.8-9.8-5.3-12.3c-0.3-0.3-0.7-0.6-1-0.9c-0.3-0.3-0.5-0.6-0.5-1.1
				c0-1,0.7-2.2,2-3.5c1.3-1.3,3.3-2,5.8-2c4.3,0,7.9,2,10.8,6c2.8,4,4.9,9.3,6.1,15.9c1.3,6.6,1.8,14.1,1.6,22.4
				c-0.2,8.4-1,16.9-2.5,25.6c5.8-6,10-12.5,12.4-19.4c2.4-6.9,4.3-14.6,5.6-22.9c0.3-2.2,1.2-3.2,2.6-3c1.4,0.2,2,1.3,1.6,3.5
				c-1.3,9-3.8,17.8-7.3,26.4c-3.5,8.6-9,16.2-16.5,22.7c-1,4.2-2.5,9.5-4.6,16c-2.1,6.5-4.8,12.9-8.1,19.1
				c-3.3,6.2-7.3,11.5-11.8,15.9c-4.5,4.4-9.5,6.6-15,6.6c-3.3,0-5.4-1.3-6.3-3.8C177.9,205.3,177.6,202.9,177.9,200.5z
				 M183.2,205.5c2.2,0,4.3-1.5,6.4-4.6c2.1-3.1,3.9-6.6,5.5-10.7c1.6-4,3-7.9,4.1-11.7c1.2-3.8,1.9-6.3,2.3-7.6
				c-4.8,3.8-9.1,8.2-12.8,13.2c-3.7,4.9-5.9,10.6-6.8,16.9c-0.2,0.5-0.2,1.4-0.1,2.6C181.9,204.9,182.4,205.5,183.2,205.5z
				 M216.4,50.6c2.7,0,5,0.9,6.9,2.8c1.9,1.8,2.8,4.1,2.8,6.8c0,2.8-0.9,5.2-2.8,7c-1.9,1.8-4.1,2.8-6.9,2.8c-2.7,0-5-0.9-6.9-2.8
				c-1.9-1.8-2.8-4.2-2.8-7c0-2.7,0.9-4.9,2.8-6.8C211.4,51.5,213.7,50.6,216.4,50.6z"/>
			<path class="st0" d="M262.4,139.1c3.3,0,6.8-1.7,10.4-5c3.6-3.3,6.8-7.7,9.7-13c-3.7-2.7-6.8-6.1-9.3-10.2
				c-2.5-4.2-4.4-8.6-5.6-13.4c-1.3-4.7-1.9-9.5-2-14.4c-0.1-4.8,0.6-9.2,2-13.1c1.4-3.9,3.5-7.1,6.3-9.5c2.8-2.4,6.2-3.6,10.4-3.6
				c3,0,5.4,0.8,7.3,2.3c1.8,1.5,3.3,3.4,4.3,5.8c1,2.3,1.7,4.8,2,7.5c0.3,2.7,0.5,5.1,0.5,7.3c0,6.2-0.9,12.8-2.6,19.9
				c-1.8,7.1-4.1,13.8-7.1,20.2c3.2,1.5,6.1,2,8.8,1.6c2.7-0.4,5.1-1.4,7.3-3c2.2-1.6,4-3.7,5.5-6.3c1.5-2.6,2.8-5.4,3.8-8.4
				c0.5-1.8,1.5-2.6,2.9-2.4c1.4,0.3,1.9,1.4,1.4,3.4v0.5c-1.2,3.5-2.8,6.8-4.8,9.8c-2,3-4.3,5.5-7,7.4c-2.7,1.9-5.7,3.1-9,3.4
				c-3.3,0.3-6.9-0.3-10.8-2c-3.3,6-7,11-10.9,14.9c-3.9,3.9-8.3,5.9-13.2,5.9c-7.5,0-13.3-2.5-17.3-7.6c-4-5.1-6.5-11.2-7.4-18.3
				c-0.9-7.1-0.4-14.6,1.5-22.6c1.9-7.9,5.1-14.9,9.4-20.9c1-1.3,2.4-2,4.3-2c1.8,0,3.7,0.3,5.5,1c1.8,0.7,3.4,1.6,4.8,2.8
				c1.3,1.2,2,2.3,2,3.3c0,0.2-0.3,0.4-1,0.8c-1.3,0.3-2.5,1.3-3.5,2.9c-1,1.6-1.8,3.1-2.5,4.4c-2.5,5-4.3,10.5-5.4,16.4
				c-1.1,5.9-1.5,11.5-1.3,16.5c0.3,5.1,1.3,9.4,3.1,12.8C256.5,137.4,259.1,139.1,262.4,139.1z M277,77.4c-1,3.2-1.5,6.6-1.6,10.3
				c-0.1,3.7,0.2,7.3,0.9,10.9c0.7,3.6,1.7,7,3.1,10.2c1.4,3.2,3.1,5.9,5.1,8c2.8-5.8,5-12.1,6.4-18.7c1.4-6.6,2.1-12.7,2.1-18.4
				c0-3.7-0.7-6.5-2-8.4c-1.3-1.9-2.9-2.9-4.6-3c-1.8-0.1-3.6,0.7-5.4,2.3C279.1,72.1,277.8,74.4,277,77.4z"/>
			<path class="st0" d="M311.1,66.9c0-1,0.7-2.2,2-3.5c1.3-1.3,3.2-2,5.5-2c3.7,0,6.5,1,8.4,2.9c1.9,1.9,3.3,4.3,4.1,7
				c0.8,2.8,1.2,5.8,1.1,9.2c-0.1,3.3-0.4,6.4-0.9,9c-0.5,3.7-1.3,7.3-2.3,10.9c-1,3.6-2,7.2-3,10.8c-1,3.6-1.8,7.2-2.4,10.9
				c-0.6,3.7-0.8,7.4-0.6,11c0.3,3.8,1.8,5.8,4.3,5.8c1.2,0,2.8-0.8,4.8-2.5c2.5-2.2,4.7-5.3,6.6-9.5c1.9-4.2,3.6-8.6,5-13.4
				c1.4-4.8,2.5-9.4,3.3-14c0.8-4.6,1.1-8.4,1.1-11.4c0-2.8,0.4-4.8,1.3-5.8c0.8-1,2.2-1.5,4-1.5c1.8,0,3.1,0.7,3.9,2.1
				c0.8,1.4,1.3,3.3,1.6,5.6c0.3,4.3,0.7,10,1,16.9c0.3,6.9,0.3,14.6,0,22.9c4-3.7,7.1-7.3,9.3-10.9c2.2-3.6,3.9-8,5.3-13.2
				c0.3-2.2,1.3-3.2,2.8-3c1.5,0.2,2,1.3,1.5,3.5c-1.8,6.4-4.1,11.7-6.9,16.2c-2.8,4.4-6.8,8.8-12.2,13.2
				c-0.5,8.4-1.4,16.8-2.8,25.4c-1.3,8.6-3.3,16.6-5.9,23.9c-2.6,7.4-5.9,13.8-9.8,19.4c-3.9,5.6-8.7,9.6-14.4,11.9
				c-1.5,0.5-2.9,0.9-4.3,1.3c-1.3,0.3-2.7,0.5-4,0.5c-3,0-5.3-0.8-6.9-2.3c-1.6-1.5-2.7-3.4-3.3-5.6c-0.6-2.3-0.8-4.7-0.8-7.3
				c0.1-2.6,0.4-5,0.9-7.1c2.2-11,6.2-21.1,12-30.3c5.8-9.2,13.5-17,23.1-23.6c1.5-8.7,2.8-17.6,3.8-26.8c-0.8,2.7-1.8,5.8-3,9.3
				c-1.2,3.5-2.6,6.9-4.3,10.2c-1.7,3.3-3.7,6-6,8.3c-2.3,2.3-5,3.4-8,3.4c-4.2,0-8.1-1.5-11.8-4.4c-3.7-2.9-5.9-7.1-6.8-12.4
				c-0.5-3.3-0.5-6.9-0.1-10.5c0.4-3.7,1-7.5,1.9-11.4c0.8-3.9,1.8-7.8,2.8-11.7c1-3.8,1.8-7.5,2.3-11c0.3-2.3,0.5-4.8,0.6-7.5
				c0.1-2.7-0.7-4.9-2.4-6.8C311.6,67.9,311.1,67.2,311.1,66.9z M313.3,195.2c-0.2,0.8-0.4,1.9-0.6,3.1c-0.3,1.3-0.3,2.5-0.3,3.8
				c0.1,1.3,0.4,2.3,0.9,3.3c0.5,0.9,1.3,1.4,2.5,1.4c2.3,0,4.6-1.6,6.9-4.9c2.3-3.3,4.4-7.4,6.5-12.3c2.1-4.9,4-10.2,5.8-15.8
				c1.8-5.6,3.2-10.8,4.4-15.7c0.5-1.8,1-3.8,1.5-5.8c0.5-2,0.9-3.9,1.3-5.8c-7.9,5.8-14.2,13-18.9,21.6
				C318.5,176.7,315.2,185.7,313.3,195.2z"/>
		</g>
	</g>
	<g>
		<g>
			<path class="st0" d="M123.2,267.2c7.3,0,14.6,7.7,10.3,16c-6.1,11.8-16.4,23.3-31.2,21.3c-11.8-1.6-19.3-12-21.7-23.3
				c-3.6-16.8-5.1-34.3-5.3-51.9c-2.6,0-5.1,0-7.7,0c-6.9,0.2-10.3-5.1-10.3-10.5s3.4-10.5,10.3-10.7c2.6,0,5.1,0,7.7,0
				c0.4-9.1,1.2-18,2.2-26.8c0.8-6.7,6.5-10.3,11.8-10.3c5.3,0,10.1,3.4,9.3,10.1c-1,8.7-1.8,17.6-2.2,26.5c4.5,0,9.1,0,13.6,0
				c6.7,0,10.3,5.1,10.3,10.5c0,5.3-3.6,10.7-10.3,10.7c-4.7,0-9.5,0-14.2,0c0,6.7,0.2,13.4,0.8,20.1c0.8,9.5,1,19.9,4.1,29
				c1.2,3.6,2.8,4.9,4.3,4.9c3.4,0,7.1-6.3,9.3-10.5C116.5,268.8,119.9,267.2,123.2,267.2z"/>
			<path class="st0" d="M221.5,271.3c0,9.5-1.2,18.6-2.2,25.1c-0.8,5.3-4.5,7.7-8.7,7.7c-6.1,0-13-5.3-11.6-13.2
				c0.4-3,1.4-11.6,1.4-20.3c0-13.4-2.2-27.2-12.4-20.3c-12.8,8.5-11.6,29.8-13,43.4c-0.4,4.3-2.8,7.3-5.9,8.9
				c-6.7,4.3-14.2-0.8-15-8.7c-3.2-21.7-4.7-43.6-5.1-65.5c-0.2-7.5-0.6-15.2-0.6-22.7c0-7.5,0.4-15,1.4-22.5
				c1-6.7,6.7-10.1,12-10.1c5.3,0,9.9,3.4,9.1,10.1c-1,8.1-1.4,16.4-1.4,24.7c0,6.9,0.2,13.8,0.4,20.7c0,3.2,0,6.3,0.2,9.5
				c4.9-5.3,11.6-9.1,20.9-10.7C215.8,224.6,221.5,249,221.5,271.3z"/>
			<path class="st0" d="M293.3,264.2c5.7,0,10.9,5.3,10.9,11.1c0,2.4-0.8,4.7-3,6.9c-8.7,8.9-19.5,13.4-29.6,13.4
				c-13.2,0-25.5-7.7-31-24.1c-3.2-9.5-5.3-21.9-5.3-34.3c0-17.8,4.5-35.7,17.2-45.6c5.3-4.1,11.8-6.3,18.2-6.3c6.1,0,12,2,17.2,6.1
				c11.3,9.1,14.2,23.3,13.2,37.1c-0.8,12-3.9,26.6-16.4,32.2c-8.1,3.8-16,4.7-24.1,4.3c2,5.3,4.7,10.9,11.4,10.3
				c6.1-0.4,10.5-3.8,14.2-7.9C288.4,265,291,264.2,293.3,264.2z M256.6,243.7c3,0.6,5.9,1,8.9,1c3.2,0,6.1-0.4,8.5-2
				c5.9-3.8,6.1-11.1,6.1-17.4c0-5.9-0.2-17.4-8.1-18.8c-7.1-1.2-11.4,5.9-12.8,11.6C257.6,226.1,256.4,235,256.6,243.7z"/>
		</g>
	</g>
	<path class="st0" d="M342.9,271.4c4.8,1.5,10.2,2.9,14.4,5.8c0.8,0.7,0.4,2.4-0.7,2.3c-5.1-0.2-9.9-1.9-14.6-3.2
		c-5.6-1.6-10.2-4.4-15.6-6.7c-0.7-0.3-0.3-1.8,0.5-1.5C332.3,269.5,337.6,269.8,342.9,271.4z M334.6,289.3c0.6,0.5,1.6,0.9,1.4,1.8
		c0,0.5-0.2,0.9-0.6,1c-0.9,0.3-1.8-0.3-2.5-0.9c-0.6-0.5-1.1-1.2-1.4-1.9c-0.3-0.7,0.6-1.6,1.3-1.2
		C333.5,288.6,334.1,288.7,334.6,289.3z M313.3,296.3c-0.4-0.2-0.7-0.6-0.7-1.2c-0.9-2.1-1.7-4-2.3-6.3c-0.3-1,1.1-1.8,1.8-0.9
		c1.1,1.4,2.3,2.8,3.5,4.2c0.3,0,0.7,0.4,0.8,0.7c2.6,3.9,6.1,7.9,8,12.3c0.3,0.9-0.5,1.8-1.3,1.3
		C319,304.3,315.8,300.1,313.3,296.3z M322.5,278.4c1.2,1,4.1,3.2,3.7,5.1c-0.5,2.6-3.9-0.9-4.4-1.6c-1.6-1.5-3-3.6-5.1-4.5
		c-0.7-0.4-0.4-1.3,0.3-1.4C319.1,275.7,321,277.2,322.5,278.4z M339.5,253c0.7,0.4,0.9,1.2,0.3,1.8c-1.4,1.8-3.8,1.8-5.9,2.2
		c-3.4,0.3-6.5,0.1-9.7,0.1c-0.9,0-1.4-1.2-0.6-1.6c2.6-1.3,4.9-2.2,7.7-2.5C333.9,252.5,337.1,251.5,339.5,253z M317.9,242
		c-0.8,0.4-1.7-0.5-1.2-1c3.2-3.6,5.6-7.5,9.3-10.5c4.2-3.2,9-6.2,14.2-7.3c0.8-0.1,1.6,0.6,1,1.3c-3.5,3.2-7.8,5.8-11.6,8.7
		C325.8,236,322.1,239.7,317.9,242z M310.7,235.7c-0.4,1.3-1,2.6-2.1,3.5c-0.6,0.7-2.3,0.2-2-0.8c0.9-2.7,0.6-6.9,3.5-8.2
		c1.1-0.6,2.1,0.7,2,1.7C312,233.1,311.2,234.5,310.7,235.7z"/>
	<path class="st0" d="M232.6,191.5c-1.7,0.4-3.3-0.2-4.8-1.6c-1.5-1.4-2-3-1.7-4.7c1.6-8.3,5.7-14.7,12.3-19.2
		c6.6-4.4,14.2-7.4,22.8-9c8.6-1.6,17.4-2,26.4-1.3c9,0.7,16.5,2,22.6,3.9c0.7,0.3,1.2,0.9,1.4,1.6s0.3,1.4,0.1,2.1
		c-0.2,0.7-0.5,1.3-1,1.8c-0.5,0.5-1.2,0.7-2.1,0.5c-8.9-1.4-16.9-1-24.1,1.2c-7.2,2.2-14.7,5.3-22.3,9.3c-2.4,1.2-4.8,2.6-7.2,4.2
		c-2.4,1.6-4.7,3.1-7.2,4.7c-2.4,1.6-4.9,2.9-7.4,4C237.8,190.2,235.2,191,232.6,191.5z"/>
	<path class="st0" d="M108.9,191.5c-1.7,0.4-3.3-0.2-4.8-1.6c-1.5-1.4-2-3-1.7-4.7c1.6-8.3,5.7-14.7,12.3-19.2
		c6.6-4.4,14.2-7.4,22.8-9c8.6-1.6,17.4-2,26.4-1.3c9,0.7,16.5,2,22.6,3.9c0.7,0.3,1.2,0.9,1.4,1.6c0.3,0.7,0.3,1.4,0.1,2.1
		c-0.2,0.7-0.5,1.3-1,1.8c-0.5,0.5-1.2,0.7-2.1,0.5c-8.9-1.4-16.9-1-24.1,1.2c-7.2,2.2-14.7,5.3-22.3,9.3c-2.4,1.2-4.8,2.6-7.2,4.2
		c-2.4,1.6-4.7,3.1-7.2,4.7c-2.4,1.6-4.9,2.9-7.4,4C114.1,190.2,111.6,191,108.9,191.5z"/>
</g>
</svg>
